<?xml version="1.0" encoding="UTF-8"?>
<svg id="Layer_1" data-name="Layer 1" xmlns="http://www.w3.org/2000/svg" viewBox="0 0 905.1 904.9">
  <defs>
    <style>
      .cls-1 {
        fill: #fff;
      }
    </style>
  </defs>
  <path class="cls-1" d="M294.1,412.2v-33.9h59v155.5h-37.9v-121.6h-21.1Z"/>
  <path class="cls-1" d="M394.2,387.1c9.4-8.2,22.1-12.4,38.1-12.4,10.6,0,19.8,1.8,27.4,5.5,7.6,3.7,13.3,8.7,17.3,15.1,3.9,6.4,5.9,13.6,5.9,21.5,0,9.4-2.3,17-7,22.9s-10.2,9.9-16.4,12v.9c8.1,2.7,14.5,7.2,19.2,13.4s7,14.3,7,24.1c0,8.8-2,16.6-6.1,23.3-4,6.7-9.9,12-17.7,15.9-7.7,3.8-16.9,5.8-27.6,5.8-17,0-30.6-4.2-40.8-12.6-10.2-8.4-15.5-21-16.1-37.9h35.4c.1,6.3,1.9,11.2,5.3,14.8s8.4,5.4,14.9,5.4c5.5,0,9.8-1.6,12.9-4.8s4.6-7.4,4.6-12.7c0-6.8-2.2-11.7-6.5-14.8s-11.3-4.6-20.8-4.6h-6.8v-29.6h6.8c7.2,0,13.1-1.2,17.6-3.7s6.7-6.9,6.7-13.3c0-5.1-1.4-9.1-4.3-11.9-2.8-2.8-6.7-4.3-11.7-4.3-5.4,0-9.4,1.6-12,4.9s-4.2,7.3-4.6,12.1h-35.6c.6-15.1,5.6-26.8,14.9-35Z"/>
  <path class="cls-1" d="M618.5,475.7h-37.1v37.9h-34.5v-37.9h-37.1v-32.6h37.1v-38.1h34.5v38.1h37.1v32.6Z"/>
</svg>