<?xml version="1.0" encoding="utf-8"?>
<!-- Generator: Adobe Illustrator 26.4.1, SVG Export Plug-In . SVG Version: 6.00 Build 0)  -->
<svg version="1.1" id="Layer_1" xmlns="http://www.w3.org/2000/svg" xmlns:xlink="http://www.w3.org/1999/xlink" x="0px" y="0px"
	 viewBox="0 0 905.1 904.9" style="enable-background:new 0 0 905.1 904.9;" xml:space="preserve">
<style type="text/css">
	.st0{fill:#FFFFFF;}
</style>
<g>
	<path class="st0" d="M452.6,904.9c-61.1,0-120.3-12-176.1-35.6c-53.9-22.8-102.3-55.4-143.9-96.9c-41.6-41.6-74.2-89.9-97-143.8
		C12,572.8,0,513.6,0,452.5s12-120.3,35.6-176.1c22.8-53.9,55.4-102.3,97-143.8c41.6-41.6,89.9-74.2,143.8-97
		C332.2,11.9,391.5,0,452.6,0s120.3,12,176.1,35.6c53.9,22.8,102.3,55.4,143.8,97c41.6,41.6,74.2,89.9,97,143.8
		c23.6,55.8,35.6,115,35.6,176.1s-12,120.3-35.6,176.1c-22.8,53.9-55.4,102.3-97,143.8c-41.6,41.6-89.9,74.2-143.8,97
		C572.9,892.9,513.7,904.9,452.6,904.9z M452.6,7C207,7,7.1,206.8,7.1,452.5S207,897.9,452.6,897.9s445.5-199.8,445.5-445.5
		S698.2,7,452.6,7z"/>
</g>
<g>
	<path class="st0" d="M452.6,746.6c-78.6,0-152.4-30.6-208-86.2c-55.6-55.6-86.2-129.4-86.2-208s30.6-152.4,86.2-208
		s129.4-86.2,208-86.2s152.4,30.6,208,86.2s86.2,129.4,86.2,208s-30.6,152.4-86.2,208C605,716,531.2,746.6,452.6,746.6z
		 M452.6,165.3c-158.3,0-287.2,128.8-287.2,287.2s128.8,287.1,287.2,287.1s287.2-128.8,287.2-287.2S610.9,165.3,452.6,165.3z"/>
</g>
<g>
	<g>
		<path class="st0" d="M169,219.3l10.5-12.4l3.4,2.8l-10.5,12.4l10,8.5l11.6-13.7l3.4,2.8l-14.6,17.2L153.4,212l14.4-17l3.4,2.8
			l-11.4,13.4L169,219.3z"/>
	</g>
	<g>
		<path class="st0" d="M205,187.7c-5.9,1.9-11.2,3.4-15.7-1.4c-3.1-3.3-4.2-10,1.2-15c5.3-5,11.8-3.4,11.8-3.4l-0.6,4.4
			c0,0-4.7-1.1-8.2,2.2c-3.1,2.9-2.7,6.6-0.8,8.6c2.7,2.9,6.1,1.7,11.6-0.1c6.1-2,10.5-2.8,14.8,1.8s3.4,11.2-1.6,15.8
			c-6.7,6.2-14.4,2.5-14.4,2.5l1.2-4.3c0,0,5.7,2.8,10.2-1.4c2.7-2.5,3.8-6.4,1.1-9.3C212.9,185.1,209.5,186.2,205,187.7z"/>
	</g>
	<g>
		<path class="st0" d="M224.8,149.3l-8.9,6.6l-2.6-3.5l21.5-15.9l2.6,3.5l-8.9,6.6l20.2,27.4l-3.7,2.7L224.8,149.3z"/>
	</g>
	<g>
		<path class="st0" d="M259.3,121.3l3.7-2.1l32.1,26l-4.2,2.4l-8.6-7l-14.4,8.2l1.7,11l-4.3,2.5L259.3,121.3z M267.2,144.1l11.5-6.5
			l-14.2-11.7L267.2,144.1z"/>
	</g>
	<g>
		<path class="st0" d="M294,103.4l9.4-3.8c7.3-3,13-0.9,15.4,5c2,4.8-0.7,8.3-1.2,8.6c0.6-0.1,6.6-0.8,9.5,6.3
			c2.5,6.2-0.4,12.1-7.4,14.9l-11.1,4.6L294,103.4z M310.4,114.6c4-1.7,5.6-4.8,4.1-8.3c-1.4-3.5-4.8-4.6-8.8-3l-5.8,2.4l4.6,11.3
			L310.4,114.6z M322.9,121.3c-1.4-3.4-4.7-5.2-9.8-3.1l-6.9,2.8l5,12.2l6.9-2.8C323.2,128.3,324.3,124.6,322.9,121.3z"/>
	</g>
	<g>
		<path class="st0" d="M336.5,87.6l4.4-1.2l9.2,32.8l16.6-4.7l1.2,4.2l-21.1,5.9L336.5,87.6z"/>
	</g>
	<g>
		<path class="st0" d="M376.6,77.8l4.5-0.8l6.9,37.9l-4.5,0.8L376.6,77.8z"/>
	</g>
	<g>
		<path class="st0" d="M416.4,93.7c-5.8-2.1-11-4.3-11.5-10.8c-0.4-4.5,2.9-10.4,10.2-11c7.2-0.6,11.4,4.7,11.4,4.7l-3.2,3.1
			c0,0-3-3.8-7.8-3.4c-4.2,0.4-6.2,3.5-6,6.2c0.3,3.9,3.7,5.2,9.2,7.1c6.1,2.2,10,4.4,10.5,10.5c0.5,6.2-4.3,10.8-11,11.4
			c-9.1,0.8-12.9-7-12.9-7l3.6-2.6c0,0,2.8,5.7,8.9,5.2c3.7-0.3,7-2.7,6.7-6.6C424.2,96.6,420.9,95.3,416.4,93.7z"/>
	</g>
	<g>
		<path class="st0" d="M472.9,72.1l4.6,0.2l-1.7,38.5l-4.6-0.2l0.8-17.5l-19.3-0.9l-0.8,17.5l-4.6-0.2L449,71l4.6,0.2l-0.7,16.5
			l19.3,0.9L472.9,72.1z"/>
	</g>
	<g>
		<path class="st0" d="M502.8,92.2l16,2.8l-0.8,4.3l-16-2.8l-2.3,13l17.7,3.1l-0.8,4.3l-22.2-3.9l6.6-37.9l21.9,3.8l-0.8,4.3
			l-17.3-3L502.8,92.2z"/>
	</g>
	<g>
		<path class="st0" d="M567.9,111.4c-3.3,10.6-12.5,16.3-23.9,12.7l-10.6-3.3L544.9,84l10.6,3.3C566.8,90.9,571.2,100.8,567.9,111.4
			z M563.1,109.9c2.4-7.8-0.3-15.6-9.3-18.4l-5.9-1.8l-8.8,28.4l5.9,1.8C554,122.6,560.7,117.8,563.1,109.9z"/>
	</g>
	<g>
		<path class="st0" d="M619.7,137c2.2-0.9,7.1-2.6,9.1-6.3c1.8-3.2,1.4-7.2-2.8-9.6c-5.3-3-9.5,1.5-9.5,1.5l-2.7-3.2
			c0,0,6.1-6.5,14.3-2c6.2,3.4,7.9,10,4.8,15.5c-2.5,4.5-7.1,6.1-8.3,6.8l-15.6,7l12.7,7l-2.1,3.8l-20.4-11.3L619.7,137z"/>
	</g>
	<g>
		<path class="st0" d="M666.4,166.3c-6,8.3-15,13.7-23,7.9c-7.9-5.8-5.7-16,0.3-24.4c6-8.3,15.1-13.6,23-7.9S672.4,158,666.4,166.3z
			 M662.7,163.6c4.4-6.1,7.2-14.1,1.6-18.1c-5.5-4-12.4,1-16.8,7.1s-7.1,14.2-1.6,18.2C651.5,174.8,658.2,169.7,662.7,163.6z"/>
	</g>
	<g>
		<path class="st0" d="M699,169.1l3.1,2.8l-25.9,28.5l-3.4-3.1l21.8-24l-9.4-0.6l0.4-4.4L699,169.1z"/>
	</g>
	<g>
		<path class="st0" d="M722.7,221.7c-7.7,6.8-17.7,10.1-24.1,2.7c-6.5-7.3-2-16.9,5.7-23.7c7.7-6.8,17.7-10,24.2-2.6
			C734.9,205.4,730.4,214.9,722.7,221.7z M719.6,218.2c5.7-5,10.1-12.2,5.6-17.3s-12.3-1.7-17.9,3.3c-5.7,5-10,12.3-5.5,17.4
			S714,223.2,719.6,218.2z"/>
	</g>
</g>
<g>
	<g>
		<path class="st0" d="M730.1,687.7l-10.5,12.5l-3.4-2.8l10.5-12.4l-10-8.5l-11.6,13.7l-3.4-2.8l14.6-17.2l29.4,24.9l-14.4,17
			l-3.4-2.8l11.4-13.4L730.1,687.7z"/>
	</g>
	<g>
		<path class="st0" d="M694.1,719.4c5.9-1.9,11.2-3.4,15.7,1.4c3.1,3.3,4.2,10-1.2,15c-5.3,5-11.8,3.4-11.8,3.4l0.6-4.4
			c0,0,4.7,1.1,8.2-2.2c3.1-2.9,2.7-6.6,0.8-8.6c-2.7-2.9-6.1-1.7-11.6,0.1c-6.1,2-10.5,2.8-14.8-1.8s-3.4-11.2,1.6-15.8
			c6.7-6.2,14.4-2.5,14.4-2.5l-1.2,4.3c0,0-5.7-2.8-10.2,1.4c-2.7,2.5-3.8,6.4-1.1,9.3C686.2,721.9,689.6,720.8,694.1,719.4z"/>
	</g>
	<g>
		<path class="st0" d="M674.3,757.8l8.9-6.6l2.6,3.5l-21.5,15.9l-2.6-3.5l8.9-6.6l-20.2-27.4l3.7-2.7L674.3,757.8z"/>
	</g>
	<g>
		<path class="st0" d="M639.8,785.8l-3.7,2.1l-32.1-26l4.2-2.4l8.6,7l14.4-8.2l-1.7-11l4.3-2.5L639.8,785.8z M631.9,763l-11.5,6.5
			l14.2,11.6L631.9,763z"/>
	</g>
	<g>
		<path class="st0" d="M605.1,803.6l-9.4,3.8c-7.3,3-13,0.9-15.4-5c-2-4.8,0.7-8.3,1.2-8.6c-0.6,0.1-6.6,0.8-9.5-6.3
			c-2.5-6.2,0.4-12.1,7.4-14.9l11.1-4.6L605.1,803.6z M576.2,785.8c1.4,3.4,4.7,5.2,9.8,3.1l6.9-2.8l-5-12.2l-6.9,2.8
			C575.9,778.7,574.8,782.4,576.2,785.8z M588.7,792.4c-4,1.7-5.6,4.8-4.1,8.3c1.4,3.5,4.8,4.6,8.8,3l5.8-2.4l-4.6-11.3L588.7,792.4
			z"/>
	</g>
	<g>
		<path class="st0" d="M562.6,819.5l-4.4,1.2l-9.2-32.8l-16.6,4.7l-1.2-4.2l21.1-5.9L562.6,819.5z"/>
	</g>
	<g>
		<path class="st0" d="M522.5,829.3l-4.5,0.8l-6.9-37.9l4.5-0.8L522.5,829.3z"/>
	</g>
	<g>
		<path class="st0" d="M482.7,813.3c5.8,2.1,11,4.3,11.5,10.8c0.4,4.5-2.9,10.4-10.2,11c-7.2,0.6-11.4-4.7-11.4-4.7l3.2-3.1
			c0,0,3,3.8,7.8,3.4c4.2-0.4,6.2-3.5,6-6.2c-0.3-3.9-3.7-5.2-9.2-7.1c-6.1-2.2-10-4.4-10.5-10.5c-0.5-6.2,4.3-10.8,11-11.4
			c9.1-0.8,12.9,7,12.9,7l-3.6,2.6c0,0-2.8-5.7-8.9-5.2c-3.7,0.3-7,2.7-6.7,6.6C474.9,810.4,478.2,811.7,482.7,813.3z"/>
	</g>
	<g>
		<path class="st0" d="M426.3,835l-4.6-0.2l1.7-38.5l4.6,0.2l-0.8,17.5l19.3,0.9l0.8-17.5l4.6,0.2l-1.7,38.5l-4.6-0.2l0.7-16.5
			l-19.3-0.9L426.3,835z"/>
	</g>
	<g>
		<path class="st0" d="M396.3,814.8l-16-2.8l0.8-4.3l16,2.8l2.3-13l-17.7-3.1l0.8-4.3l22.2,3.9l-6.6,37.9l-21.9-3.8l0.8-4.3l17.3,3
			L396.3,814.8z"/>
	</g>
	<g>
		<path class="st0" d="M331.3,795.6c3.3-10.6,12.5-16.3,23.9-12.7l10.6,3.3L354.4,823l-10.6-3.3C332.3,816.1,328,806.2,331.3,795.6z
			 M336,797.1c-2.4,7.8,0.3,15.6,9.3,18.4l5.9,1.8l8.8-28.4l-5.9-1.8C345.1,784.4,338.4,789.3,336,797.1z"/>
	</g>
	<g>
		<path class="st0" d="M279.5,770c-2.2,0.9-7.1,2.6-9.1,6.3c-1.8,3.2-1.4,7.2,2.8,9.6c5.3,3,9.5-1.5,9.5-1.5l2.7,3.2
			c0,0-6.1,6.5-14.3,2c-6.2-3.4-7.9-10-4.8-15.5c2.5-4.5,7.1-6.1,8.3-6.8l15.6-7l-12.7-7l2.1-3.8l20.4,11.3L279.5,770z"/>
	</g>
	<g>
		<path class="st0" d="M232.7,740.7c6-8.3,15-13.7,23-7.9c7.9,5.8,5.7,16-0.3,24.4c-6,8.3-15.1,13.6-23,7.9S226.7,749,232.7,740.7z
			 M236.5,743.4c-4.4,6.1-7.2,14.1-1.6,18.1c5.5,4,12.4-1,16.8-7.1s7.1-14.2,1.6-18.2C247.6,732.2,240.9,737.3,236.5,743.4z"/>
	</g>
	<g>
		<path class="st0" d="M200.1,737.9l-3.1-2.8l25.9-28.5l3.4,3.1l-21.8,24l9.4,0.6l-0.4,4.4L200.1,737.9z"/>
	</g>
	<g>
		<path class="st0" d="M176.5,685.4c7.7-6.8,17.7-10.1,24.1-2.7c6.5,7.3,2,16.9-5.7,23.7c-7.7,6.8-17.7,10-24.2,2.6
			C164.2,701.6,168.7,692.2,176.5,685.4z M179.5,688.8c-5.7,5-10.1,12.2-5.6,17.3s12.3,1.7,17.9-3.3c5.7-5,10-12.3,5.5-17.4
			S185.2,683.8,179.5,688.8z"/>
	</g>
</g>
</svg>
