<?xml version="1.0" encoding="utf-8"?>
<!-- Generator: Adobe Illustrator 26.4.1, SVG Export Plug-In . SVG Version: 6.00 Build 0)  -->
<svg version="1.1" id="Layer_1" xmlns="http://www.w3.org/2000/svg" xmlns:xlink="http://www.w3.org/1999/xlink" x="0px" y="0px"
	 viewBox="0 0 151.2 12.6" style="enable-background:new 0 0 151.2 12.6;" xml:space="preserve">
<style type="text/css">
	.st0{fill:#08C18A;}
	.st1{fill:#FFFFFF;}
</style>
<g id="Layer_2_1_">
</g>
<g id="Layer_1_1_">
	<g>
		<path class="st0" d="M141.5,9.7c0,0-2.6-5.2,1.8-9.6C143.3,0,146.4,6.6,141.5,9.7"/>
		<path class="st0" d="M141.6,9.9c0,0,5.2-2.6,9.6,1.8C151.2,11.7,144.7,14.8,141.6,9.9"/>
	</g>
	<g>
		<path class="st1" d="M0,1.2C-0.1,1,0,0.8,0.3,0.8H2c0.1,0,0.2,0.1,0.3,0.2l3.1,7h0.1l3.1-7c0-0.1,0.1-0.2,0.3-0.2h1.7
			c0.2,0,0.4,0.2,0.3,0.4l-5.1,11c0,0.1-0.1,0.2-0.3,0.2H5.3c-0.1,0-0.2-0.1-0.3-0.2L0,1.2z"/>
		<path class="st1" d="M14.2,1.1c0-0.2,0.1-0.3,0.3-0.3h6.6c0.2,0,0.3,0.1,0.3,0.3v1.3c0,0.2-0.1,0.3-0.3,0.3h-4.8v2.7h4
			c0.2,0,0.3,0.1,0.3,0.3v1.4c0,0.2-0.1,0.3-0.3,0.3h-4v2.9h4.8c0.2,0,0.3,0.1,0.3,0.3v1.3c0,0.2-0.1,0.3-0.3,0.3h-6.6
			c-0.2,0-0.3-0.1-0.3-0.3C14.2,11.9,14.2,1.1,14.2,1.1z"/>
		<path class="st1" d="M25.7,1.1c0-0.2,0.1-0.3,0.3-0.3h4.7c2,0,3.6,1.6,3.6,3.5c0,1.5-1,2.7-2.4,3.3l2.2,4.1c0.1,0.2,0,0.5-0.3,0.5
			h-1.7c-0.1,0-0.2-0.1-0.3-0.1l-2.2-4.3h-1.8V12c0,0.2-0.1,0.3-0.3,0.3H26c-0.2,0-0.3-0.1-0.3-0.3V1.1z M30.5,6
			c0.9,0,1.6-0.8,1.6-1.7c0-0.9-0.8-1.6-1.6-1.6h-2.7v3.2h2.7V6z"/>
		<path class="st1" d="M38.2,1.1c0-0.2,0.1-0.3,0.3-0.3h3.9c3.1,0,5.7,2.6,5.7,5.7c0,3.2-2.6,5.7-5.7,5.7h-4c-0.2,0-0.3-0.1-0.3-0.3
			L38.2,1.1L38.2,1.1z M42.1,10.2c2.1,0,3.7-1.6,3.7-3.7s-1.5-3.7-3.7-3.7h-1.9v7.4H42.1z"/>
		<path class="st1" d="M50.5,11.7l5.1-11c0-0.1,0.1-0.2,0.3-0.2h0.2c0.2,0,0.2,0.1,0.3,0.2l5,11c0.1,0.2,0,0.4-0.3,0.4h-1.4
			c-0.2,0-0.4-0.1-0.5-0.3L58.4,10h-4.9l-0.8,1.8c-0.1,0.2-0.2,0.3-0.5,0.3h-1.4C50.5,12.2,50.4,11.9,50.5,11.7z M57.5,8.3l-1.6-3.6
			l0,0l-1.6,3.6H57.5z"/>
		<path class="st1" d="M69.1,1c0-0.1,0.1-0.2,0.2-0.2h3.5c3.2,0,5.7,2.6,5.7,5.7c0,3.2-2.6,5.7-5.7,5.7h-3.5c-0.1,0-0.2-0.1-0.2-0.2
			V1z M72.6,11.5c2.9,0,5.1-2.2,5.1-5s-2.2-5-5.1-5h-2.8v10H72.6z"/>
		<path class="st1" d="M83,1c0-0.1,0.1-0.2,0.2-0.2h6.5c0.1,0,0.2,0.1,0.2,0.2v0.3c0,0.1-0.1,0.2-0.2,0.2h-6V6h5.2
			c0.1,0,0.2,0.1,0.2,0.2v0.3c0,0.1-0.1,0.2-0.2,0.2h-5.2v4.8h6c0.1,0,0.2,0.1,0.2,0.2V12c0,0.1-0.1,0.2-0.2,0.2h-6.5
			c-0.1,0-0.2-0.1-0.2-0.2V1z"/>
		<path class="st1" d="M94,10.6l0.1-0.2c0.1-0.1,0.2-0.2,0.4-0.1c0.2,0.1,1.4,1.3,3,1.3c1.5,0,2.7-1,2.7-2.2c0-1.5-1.2-2.1-3.2-2.8
			c-1.9-0.7-3.1-1.3-3.1-3.2c0-1.2,1-2.9,3.5-2.9c1.6,0,2.8,0.8,2.8,0.8c0.1,0,0.2,0.2,0.1,0.3c0,0.1-0.1,0.1-0.1,0.2
			c-0.1,0.1-0.2,0.2-0.4,0.1c0,0-1.1-0.8-2.4-0.8c-2,0-2.8,1.2-2.8,2.2c0,1.4,1.1,2,2.7,2.5c2.2,0.8,3.7,1.5,3.7,3.4
			c0,1.6-1.7,2.9-3.6,2.9s-3.2-1.1-3.5-1.3C94,10.9,93.9,10.8,94,10.6z"/>
		<path class="st1" d="M105.4,1c0-0.1,0.1-0.2,0.2-0.2h0.4c0.1,0,0.2,0.1,0.2,0.2v11c0,0.1-0.1,0.2-0.2,0.2h-0.3
			c-0.1,0-0.2-0.1-0.2-0.2L105.4,1L105.4,1z"/>
		<path class="st1" d="M116.7,0.6c1.6,0,2.9,0.6,3.9,1.5c0.1,0.1,0.1,0.2,0,0.3s-0.2,0.2-0.3,0.3s-0.2,0.1-0.3,0
			c-0.9-0.8-2.1-1.4-3.4-1.4c-2.8,0-5.1,2.3-5.1,5.1s2.2,5.1,5.1,5.1c2,0,3.2-0.8,3.4-0.9V7.5h-2.8c-0.2,0-0.2-0.1-0.2-0.2V7
			c0-0.1,0-0.2,0.2-0.2h3.3c0.1,0,0.2,0.1,0.2,0.2v3.8c0,0.2-0.1,0.3-0.2,0.4c-0.3,0.2-1.8,1-3.9,1c-3.3,0-5.9-2.6-5.9-5.9
			C110.8,3.2,113.4,0.6,116.7,0.6z"/>
		<path class="st1" d="M125.6,0.8c0-0.1,0.1-0.2,0.2-0.2h0.3l7.8,10.2l0,0V1c0-0.1,0.1-0.2,0.2-0.2h0.3c0.1,0,0.2,0.1,0.2,0.2v11.1
			c0,0.1-0.1,0.2-0.3,0.2h-0.2c0,0-0.1,0-7.9-10.3l0,0v9.9c0,0.1-0.1,0.2-0.2,0.2h-0.3c-0.1,0-0.2-0.1-0.2-0.2L125.6,0.8L125.6,0.8z
			"/>
	</g>
</g>
</svg>
