<?xml version="1.0" encoding="utf-8"?>
<!-- Generator: Adobe Illustrator 26.4.1, SVG Export Plug-In . SVG Version: 6.00 Build 0)  -->
<svg version="1.1" id="Layer_1" xmlns="http://www.w3.org/2000/svg" xmlns:xlink="http://www.w3.org/1999/xlink" x="0px" y="0px"
	 viewBox="0 0 184.1 12.6" style="enable-background:new 0 0 184.1 12.6;" xml:space="preserve">
<style type="text/css">
	.st0{fill:#08C18A;}
	.st1{fill:#FFFFFF;}
	.st2{opacity:0.67;}
	.st3{opacity:0.29;}
	.st4{fill:#B7B7B7;}
</style>
<g id="Layer_2_1_">
</g>
<g id="Layer_1_2_">
	<g>
		<path class="st0" d="M141.5,9.6c0,0-2.6-5.2,1.8-9.6C143.3-0.1,146.4,6.5,141.5,9.6"/>
		<path class="st0" d="M141.6,9.8c0,0,5.2-2.6,9.6,1.8C151.2,11.6,144.7,14.7,141.6,9.8"/>
	</g>
	<g>
		<path class="st1" d="M0,1.1c-0.1-0.2,0-0.4,0.3-0.4H2c0.1,0,0.2,0.1,0.3,0.2l3.1,7h0.1l3.1-7c0-0.1,0.1-0.2,0.3-0.2h1.7
			c0.2,0,0.4,0.2,0.3,0.4l-5.1,11c0,0.1-0.1,0.2-0.3,0.2H5.3c-0.1,0-0.2-0.1-0.3-0.2L0,1.1z"/>
		<path class="st1" d="M14.2,1c0-0.2,0.1-0.3,0.3-0.3h6.6c0.2,0,0.3,0.1,0.3,0.3v1.3c0,0.2-0.1,0.3-0.3,0.3h-4.8v2.7h4
			c0.2,0,0.3,0.1,0.3,0.3V7c0,0.2-0.1,0.3-0.3,0.3h-4v2.9h4.8c0.2,0,0.3,0.1,0.3,0.3v1.3c0,0.2-0.1,0.3-0.3,0.3h-6.6
			c-0.2,0-0.3-0.1-0.3-0.3C14.2,11.8,14.2,1,14.2,1z"/>
		<path class="st1" d="M25.7,1c0-0.2,0.1-0.3,0.3-0.3h4.7c2,0,3.6,1.6,3.6,3.5c0,1.5-1,2.7-2.4,3.3l2.2,4.1c0.1,0.2,0,0.5-0.3,0.5
			h-1.7c-0.1,0-0.2-0.1-0.3-0.1l-2.2-4.3h-1.8v4.2c0,0.2-0.1,0.3-0.3,0.3H26c-0.2,0-0.3-0.1-0.3-0.3V1z M30.5,5.9
			c0.9,0,1.6-0.8,1.6-1.7c0-0.9-0.8-1.6-1.6-1.6h-2.7v3.2h2.7V5.9z"/>
		<path class="st1" d="M38.2,1c0-0.2,0.1-0.3,0.3-0.3h3.9c3.1,0,5.7,2.6,5.7,5.7c0,3.2-2.6,5.7-5.7,5.7h-4c-0.2,0-0.3-0.1-0.3-0.3
			L38.2,1L38.2,1z M42.1,10.1c2.1,0,3.7-1.6,3.7-3.7s-1.5-3.7-3.7-3.7h-1.9v7.4H42.1z"/>
		<path class="st1" d="M50.5,11.6l5.1-11c0-0.1,0.1-0.2,0.3-0.2h0.2c0.2,0,0.2,0.1,0.3,0.2l5,11c0.1,0.2,0,0.4-0.3,0.4h-1.4
			c-0.2,0-0.4-0.1-0.5-0.3l-0.8-1.8h-4.9l-0.8,1.8c-0.1,0.2-0.2,0.3-0.5,0.3h-1.4C50.5,12.1,50.4,11.8,50.5,11.6z M57.5,8.2
			l-1.6-3.6l0,0l-1.6,3.6H57.5z"/>
		<path class="st1" d="M69.1,0.9c0-0.1,0.1-0.2,0.2-0.2h3.5c3.2,0,5.7,2.6,5.7,5.7c0,3.2-2.6,5.7-5.7,5.7h-3.5
			c-0.1,0-0.2-0.1-0.2-0.2V0.9z M72.6,11.4c2.9,0,5.1-2.2,5.1-5s-2.2-5-5.1-5h-2.8v10H72.6z"/>
		<path class="st1" d="M83,0.9c0-0.1,0.1-0.2,0.2-0.2h6.5c0.1,0,0.2,0.1,0.2,0.2v0.3c0,0.1-0.1,0.2-0.2,0.2h-6v4.5h5.2
			c0.1,0,0.2,0.1,0.2,0.2v0.3c0,0.1-0.1,0.2-0.2,0.2h-5.2v4.8h6c0.1,0,0.2,0.1,0.2,0.2v0.3c0,0.1-0.1,0.2-0.2,0.2h-6.5
			c-0.1,0-0.2-0.1-0.2-0.2V0.9z"/>
		<path class="st1" d="M94,10.5l0.1-0.2c0.1-0.1,0.2-0.2,0.4-0.1c0.2,0.1,1.4,1.3,3,1.3c1.5,0,2.7-1,2.7-2.2c0-1.5-1.2-2.1-3.2-2.8
			c-1.9-0.7-3.1-1.3-3.1-3.2c0-1.2,1-2.9,3.5-2.9c1.6,0,2.8,0.8,2.8,0.8c0.1,0,0.2,0.2,0.1,0.3c0,0.1-0.1,0.1-0.1,0.2
			c-0.1,0.1-0.2,0.2-0.4,0.1c0,0-1.1-0.8-2.4-0.8c-2,0-2.8,1.2-2.8,2.2c0,1.4,1.1,2,2.7,2.5c2.2,0.8,3.7,1.5,3.7,3.4
			c0,1.6-1.7,2.9-3.6,2.9s-3.2-1.1-3.5-1.3C94,10.8,93.9,10.7,94,10.5z"/>
		<path class="st1" d="M105.4,0.9c0-0.1,0.1-0.2,0.2-0.2h0.4c0.1,0,0.2,0.1,0.2,0.2v11c0,0.1-0.1,0.2-0.2,0.2h-0.3
			c-0.1,0-0.2-0.1-0.2-0.2L105.4,0.9L105.4,0.9z"/>
		<path class="st1" d="M116.7,0.5c1.6,0,2.9,0.6,3.9,1.5c0.1,0.1,0.1,0.2,0,0.3s-0.2,0.2-0.3,0.3s-0.2,0.1-0.3,0
			c-0.9-0.8-2.1-1.4-3.4-1.4c-2.8,0-5.1,2.3-5.1,5.1s2.2,5.1,5.1,5.1c2,0,3.2-0.8,3.4-0.9V7.4h-2.8c-0.2,0-0.2-0.1-0.2-0.2V6.9
			c0-0.1,0-0.2,0.2-0.2h3.3c0.1,0,0.2,0.1,0.2,0.2v3.8c0,0.2-0.1,0.3-0.2,0.4c-0.3,0.2-1.8,1-3.9,1c-3.3,0-5.9-2.6-5.9-5.9
			C110.8,3.1,113.4,0.5,116.7,0.5z"/>
		<path class="st1" d="M125.6,0.7c0-0.1,0.1-0.2,0.2-0.2h0.3l7.8,10.2l0,0V0.9c0-0.1,0.1-0.2,0.2-0.2h0.3c0.1,0,0.2,0.1,0.2,0.2V12
			c0,0.1-0.1,0.2-0.3,0.2h-0.2c0,0-0.1,0-7.9-10.3l0,0v9.9c0,0.1-0.1,0.2-0.2,0.2h-0.3c-0.1,0-0.2-0.1-0.2-0.2L125.6,0.7L125.6,0.7z
			"/>
	</g>
</g>
<g class="st2">
	<g class="st3">
		<g>
			<rect x="158.2" y="0.2" class="st1" width="0.5" height="11.9"/>
		</g>
	</g>
</g>
<path class="st4" d="M164.9,1c0-0.1,0-0.1,0.1-0.1h2.2c0.1,0,0.1,0,0.1,0.1v0.3c0,0.1,0,0.1-0.1,0.1h-1.7v1.1h1.5
	c0.1,0,0.1,0,0.1,0.1v0.3c0,0.1,0,0.1-0.1,0.1h-1.5v1.2h1.7c0.1,0,0.1,0,0.1,0.1v0.3c0,0.1,0,0.1-0.1,0.1H165c-0.1,0-0.1,0-0.1-0.1
	V1z"/>
<path class="st4" d="M168.9,4.1c0-0.1,0.1-0.2,0.1-0.2c0-0.1,0.1-0.1,0.2,0c0,0,0.5,0.4,0.9,0.4s0.6-0.2,0.6-0.5s-0.3-0.5-0.8-0.8
	c-0.6-0.2-1-0.5-1-1.2c0-0.4,0.3-1,1.2-1c0.5,0,1,0.3,1,0.3s0.1,0.1,0,0.2c0,0.1-0.1,0.1-0.1,0.2c0,0.1-0.1,0.1-0.2,0.1
	c0,0-0.4-0.3-0.7-0.3c-0.5,0-0.6,0.3-0.6,0.5c0,0.3,0.2,0.5,0.7,0.7c0.6,0.3,1.2,0.6,1.2,1.2c0,0.6-0.5,1-1.2,1s-1.1-0.3-1.2-0.4
	C168.9,4.3,168.9,4.2,168.9,4.1z"/>
<path class="st4" d="M173.7,1.4h-0.9c-0.1,0-0.1,0-0.1-0.1V1c0-0.1,0-0.1,0.1-0.1h2.3c0.1,0,0.1,0,0.1,0.1v0.3c0,0.1,0,0.1-0.1,0.1
	h-0.9v3.2c0,0.1,0,0.1-0.1,0.1h-0.4c-0.1,0-0.1,0-0.1-0.1L173.7,1.4L173.7,1.4z"/>
<path class="st4" d="M164.8,11.9c0.5-0.6,1.3-1.6,1.9-2.2c0.4-0.4,0.6-0.8,0.6-1.1c0-0.4-0.3-0.8-0.9-0.8c-0.4,0-0.7,0.3-0.9,0.5
	c-0.1,0.1-0.1,0.1-0.2,0L165,8c0,0-0.1-0.1,0-0.2c0,0,0.6-0.7,1.4-0.7c1.1,0,1.6,0.7,1.6,1.4c0,0.6-0.3,1-0.7,1.4
	c-0.4,0.5-0.9,1.1-1.3,1.6h1.9c0.1,0,0.1,0.1,0.1,0.1V12c0,0.1-0.1,0.1-0.1,0.1H165c-0.1,0-0.1-0.1-0.1-0.1v-0.1H164.8z"/>
<path class="st4" d="M170.3,9.7c0-1.6,0.7-2.6,1.8-2.6c1.2,0,1.8,1,1.8,2.6s-0.7,2.6-1.8,2.6S170.3,11.3,170.3,9.7z M173.2,9.7
	c0-1.2-0.4-1.9-1.1-1.9c-0.7,0-1.1,0.7-1.1,1.9c0,1.2,0.4,1.9,1.1,1.9S173.2,10.9,173.2,9.7z"/>
<path class="st4" d="M177,8.3l-0.6,0.3c-0.1,0-0.1,0-0.2-0.1l-0.1-0.3c0-0.1,0-0.1,0-0.1l1-1h0.4c0.1,0,0.1,0.1,0.1,0.1v4.7
	c0,0.1-0.1,0.1-0.1,0.1h-0.4c-0.1,0-0.1-0.1-0.1-0.1L177,8.3L177,8.3z"/>
<path class="st4" d="M180.4,9.7c0-1.6,0.7-2.6,1.8-2.6c1.2,0,1.8,1,1.8,2.6s-0.7,2.6-1.8,2.6C181.1,12.3,180.4,11.3,180.4,9.7z
	 M183.3,9.7c0-1.2-0.4-1.9-1.1-1.9c-0.7,0-1.1,0.7-1.1,1.9c0,1.2,0.4,1.9,1.1,1.9C182.9,11.6,183.3,10.9,183.3,9.7z"/>
</svg>
